# xmcd
#
# Track frame offsets:
#   150
#   26016
#   38138
#   67722
#   93098
#   116282
#   148356
#   183594
#   210864
#   246371
#   268992
#   294460
#   315520
#
# Disc length: 4543 seconds
#
# Revision: 0
# Processed by: cddbd v1.5.2PL0 Copyright (c) Steve Scherf et al.
# Submitted via: GXTranscoder 2.0.1939
#
DISCID=b711bd0d
DTITLE=Various Artist - Trip Hop 2000
DYEAR=2000
DGENRE=Trip Hop
TTITLE0=Portishead - Mysterons
TTITLE1=Various Artist - hooverphonic 2wicky
TTITLE2=death in vegas - all that glit
TTITLE3=kid loco - you who are reading
TTITLE4=morcheeba - small town
TTITLE5=nightmares on wax - cruise
TTITLE6=azymuth - cuica laranja azeda
TTITLE7=sin - where shall i turn?
TTITLE8=Massive Attack - Protection
TTITLE9=Dj cam - Pure Pleasure
TTITLE10=Portishead - glory box
TTITLE11=Dj Krush and Toshinori kondo
TTITLE12=Hector zazou and Harold budd
EXTD=
EXTT0=
EXTT1=
EXTT2=
EXTT3=
EXTT4=
EXTT5=
EXTT6=
EXTT7=
EXTT8=
EXTT9=
EXTT10=
EXTT11=
EXTT12=
PLAYORDER=
